<mxfile host="app.diagrams.net" modified="2022-10-03T10:50:25.723Z" agent="5.0 (X11)" etag="kKD9cucGWRaUs8KgXXHp" version="20.4.0" type="github">
  <diagram id="kgpKYQtTHZ0yAKxKKP6v" name="Page-1">
    <mxGraphModel dx="1185" dy="723" grid="1" gridSize="10" guides="1" tooltips="1" connect="1" arrows="1" fold="1" page="1" pageScale="1" pageWidth="850" pageHeight="1100" math="0" shadow="0">
      <root>
        <mxCell id="0" />
        <mxCell id="1" parent="0" />
        <mxCell id="3nuBFxr9cyL0pnOWT2aG-1" value="ProcessDataProvider" style="shape=umlLifeline;perimeter=lifelinePerimeter;container=1;collapsible=0;recursiveResize=0;rounded=0;shadow=0;strokeWidth=1;" parent="1" vertex="1">
          <mxGeometry x="130" y="110" width="210" height="480" as="geometry" />
        </mxCell>
        <mxCell id="3nuBFxr9cyL0pnOWT2aG-2" value="" style="points=[];perimeter=orthogonalPerimeter;rounded=0;shadow=0;strokeWidth=1;" parent="3nuBFxr9cyL0pnOWT2aG-1" vertex="1">
          <mxGeometry x="100" y="70" width="10" height="380" as="geometry" />
        </mxCell>
        <mxCell id="3nuBFxr9cyL0pnOWT2aG-3" value="getProcessData" style="verticalAlign=bottom;startArrow=oval;endArrow=block;startSize=8;shadow=0;strokeWidth=1;" parent="3nuBFxr9cyL0pnOWT2aG-1" target="3nuBFxr9cyL0pnOWT2aG-2" edge="1">
          <mxGeometry relative="1" as="geometry">
            <mxPoint x="-20" y="70" as="sourcePoint" />
          </mxGeometry>
        </mxCell>
        <mxCell id="fRTIgKkfS0FiRX4LRDIZ-4" value="prepareProcessDirs" style="html=1;verticalAlign=bottom;endArrow=block;rounded=0;exitX=0.969;exitY=0.051;exitDx=0;exitDy=0;exitPerimeter=0;entryX=1.036;entryY=0.184;entryDx=0;entryDy=0;entryPerimeter=0;" edge="1" parent="3nuBFxr9cyL0pnOWT2aG-1" source="3nuBFxr9cyL0pnOWT2aG-2" target="3nuBFxr9cyL0pnOWT2aG-2">
          <mxGeometry x="0.0614" width="80" relative="1" as="geometry">
            <mxPoint x="180" y="280" as="sourcePoint" />
            <mxPoint x="230" y="150" as="targetPoint" />
            <Array as="points">
              <mxPoint x="170" y="90" />
              <mxPoint x="170" y="140" />
            </Array>
            <mxPoint as="offset" />
          </mxGeometry>
        </mxCell>
        <mxCell id="fRTIgKkfS0FiRX4LRDIZ-5" value="loop" style="shape=umlFrame;whiteSpace=wrap;html=1;" vertex="1" parent="3nuBFxr9cyL0pnOWT2aG-1">
          <mxGeometry x="30" y="160" width="490" height="250" as="geometry" />
        </mxCell>
        <mxCell id="fRTIgKkfS0FiRX4LRDIZ-6" value="[For each process dir]" style="text;html=1;resizable=0;autosize=1;align=center;verticalAlign=middle;points=[];fillColor=none;strokeColor=none;rounded=0;" vertex="1" parent="3nuBFxr9cyL0pnOWT2aG-1">
          <mxGeometry x="110" y="160" width="150" height="30" as="geometry" />
        </mxCell>
        <mxCell id="fRTIgKkfS0FiRX4LRDIZ-15" value="return" style="html=1;verticalAlign=bottom;endArrow=open;dashed=1;endSize=8;rounded=0;" edge="1" parent="3nuBFxr9cyL0pnOWT2aG-1">
          <mxGeometry relative="1" as="geometry">
            <mxPoint x="100" y="440" as="sourcePoint" />
            <mxPoint x="-20" y="440" as="targetPoint" />
          </mxGeometry>
        </mxCell>
        <mxCell id="3nuBFxr9cyL0pnOWT2aG-5" value="ProcessDataReader" style="shape=umlLifeline;perimeter=lifelinePerimeter;container=1;collapsible=0;recursiveResize=0;rounded=0;shadow=0;strokeWidth=1;" parent="1" vertex="1">
          <mxGeometry x="370" y="110" width="160" height="480" as="geometry" />
        </mxCell>
        <mxCell id="3nuBFxr9cyL0pnOWT2aG-6" value="" style="points=[];perimeter=orthogonalPerimeter;rounded=0;shadow=0;strokeWidth=1;" parent="3nuBFxr9cyL0pnOWT2aG-5" vertex="1">
          <mxGeometry x="75" y="80" width="10" height="360" as="geometry" />
        </mxCell>
        <mxCell id="fRTIgKkfS0FiRX4LRDIZ-2" value="Reader" style="shape=umlLifeline;perimeter=lifelinePerimeter;container=1;collapsible=0;recursiveResize=0;rounded=0;shadow=0;strokeWidth=1;" vertex="1" parent="1">
          <mxGeometry x="570" y="110" width="120" height="480" as="geometry" />
        </mxCell>
        <mxCell id="fRTIgKkfS0FiRX4LRDIZ-3" value="" style="points=[];perimeter=orthogonalPerimeter;rounded=0;shadow=0;strokeWidth=1;" vertex="1" parent="fRTIgKkfS0FiRX4LRDIZ-2">
          <mxGeometry x="55" y="240" width="10" height="140" as="geometry" />
        </mxCell>
        <mxCell id="fRTIgKkfS0FiRX4LRDIZ-7" value="getStatusData(pid)" style="html=1;verticalAlign=bottom;endArrow=block;rounded=0;exitX=1.1;exitY=0.373;exitDx=0;exitDy=0;exitPerimeter=0;entryX=0.007;entryY=0.368;entryDx=0;entryDy=0;entryPerimeter=0;" edge="1" parent="1" source="3nuBFxr9cyL0pnOWT2aG-2" target="3nuBFxr9cyL0pnOWT2aG-6">
          <mxGeometry x="0.0564" y="2" width="80" relative="1" as="geometry">
            <mxPoint x="290" y="330" as="sourcePoint" />
            <mxPoint x="440" y="322" as="targetPoint" />
            <mxPoint as="offset" />
          </mxGeometry>
        </mxCell>
        <mxCell id="fRTIgKkfS0FiRX4LRDIZ-8" value="create Reader(filename)" style="html=1;verticalAlign=bottom;endArrow=block;rounded=0;exitX=1.018;exitY=0.443;exitDx=0;exitDy=0;exitPerimeter=0;" edge="1" parent="1" source="3nuBFxr9cyL0pnOWT2aG-6" target="fRTIgKkfS0FiRX4LRDIZ-2">
          <mxGeometry x="-0.0491" width="80" relative="1" as="geometry">
            <mxPoint x="460" y="350" as="sourcePoint" />
            <mxPoint x="550" y="350" as="targetPoint" />
            <mxPoint as="offset" />
          </mxGeometry>
        </mxCell>
        <mxCell id="fRTIgKkfS0FiRX4LRDIZ-9" value="readStatusData" style="html=1;verticalAlign=bottom;endArrow=block;rounded=0;exitX=0.895;exitY=0.609;exitDx=0;exitDy=0;exitPerimeter=0;" edge="1" parent="1" source="3nuBFxr9cyL0pnOWT2aG-6" target="fRTIgKkfS0FiRX4LRDIZ-3">
          <mxGeometry x="-0.0464" y="-1" width="80" relative="1" as="geometry">
            <mxPoint x="460" y="410" as="sourcePoint" />
            <mxPoint x="540" y="410" as="targetPoint" />
            <mxPoint as="offset" />
          </mxGeometry>
        </mxCell>
        <mxCell id="fRTIgKkfS0FiRX4LRDIZ-11" value="return" style="html=1;verticalAlign=bottom;endArrow=open;dashed=1;endSize=8;rounded=0;entryX=0.943;entryY=0.751;entryDx=0;entryDy=0;entryPerimeter=0;" edge="1" parent="1" source="fRTIgKkfS0FiRX4LRDIZ-2" target="3nuBFxr9cyL0pnOWT2aG-6">
          <mxGeometry relative="1" as="geometry">
            <mxPoint x="610" y="460" as="sourcePoint" />
            <mxPoint x="460" y="460" as="targetPoint" />
          </mxGeometry>
        </mxCell>
        <mxCell id="fRTIgKkfS0FiRX4LRDIZ-13" value="return" style="html=1;verticalAlign=bottom;endArrow=open;dashed=1;endSize=8;rounded=0;" edge="1" parent="1" source="3nuBFxr9cyL0pnOWT2aG-5" target="3nuBFxr9cyL0pnOWT2aG-1">
          <mxGeometry relative="1" as="geometry">
            <mxPoint x="360" y="350" as="sourcePoint" />
            <mxPoint x="280" y="350" as="targetPoint" />
            <Array as="points">
              <mxPoint x="390" y="500" />
            </Array>
          </mxGeometry>
        </mxCell>
      </root>
    </mxGraphModel>
  </diagram>
</mxfile>
